<svg width="236" height="43" viewBox="0 0 236 43" fill="none" xmlns="http://www.w3.org/2000/svg">
<path d="M80.7788 42.5419H48.5184V0.264224H79.9855V7.06829H56.8479V17.7038H78.7956V24.4418H56.8479V35.6718H80.7788V42.5419Z" fill="white"/>
<path d="M181.511 42.4758H173.38V0.330291H180.453L202.798 28.6035V0.330291H210.929V42.4758H203.789L181.511 14.2687V42.4758Z" fill="white"/>
<path d="M135.649 29.9907H143.516C144.243 34.5488 146.689 35.6718 151.184 35.6718C155.878 35.6718 159.117 34.0203 159.117 26.886V0H167.116V27.0181C167.116 37.1251 161.96 42.8061 150.986 42.8061C141.797 42.8061 135.649 38.3802 135.649 29.9907Z" fill="white"/>
<path d="M129.386 42.4758H121.254V0.330291H129.386V42.4758Z" fill="white"/>
<path d="M93.1816 42.4758H85.0504V0.330291H116.253V7.06829H93.1816V17.7038H114.997V24.3757H93.1816V42.4758Z" fill="white"/>
<path fill-rule="evenodd" clip-rule="evenodd" d="M13.2323 8.65392V34.1525H21.3911C25.3517 34.1525 28.4145 33.032 30.5796 30.7909C32.7448 28.5499 33.8273 25.3797 33.8273 21.2802C33.8273 17.1261 32.7448 13.9832 30.5796 11.8515C28.4145 9.71977 25.3517 8.65392 21.3911 8.65392H13.2323ZM0.000194901 0.154279H21.6372C24.6795 0.154279 27.4726 0.605504 30.0167 1.50797C32.5607 2.41043 34.7375 3.75043 36.5472 5.52801C38.3568 7.30558 39.76 9.49334 40.7566 12.0913C41.7532 14.6893 42.2515 17.6838 42.2515 21.0749C42.2515 24.3566 41.7663 27.3374 40.7959 30.0174C39.8255 32.6975 38.4355 34.9673 36.6258 36.8269C34.8162 38.6865 32.6394 40.1222 30.0953 41.1341C27.5513 42.1459 24.732 42.6518 21.6372 42.6518H5.03556V8.60457H0L0.000194901 0.154279Z" fill="white"/>
<path d="M225.558 18.7492C219.768 18.7492 215.615 14.7575 215.615 9.35445C215.615 3.95145 219.768 0 225.558 0C231.305 0 235.501 3.95145 235.501 9.31413C235.501 14.7171 231.305 18.7492 225.558 18.7492ZM225.558 17.1767C230.173 17.1767 233.613 13.8301 233.613 9.31413C233.613 4.91915 230.173 1.57251 225.558 1.57251C220.901 1.57251 217.503 4.91915 217.503 9.35445C217.503 13.8704 220.901 17.1767 225.558 17.1767ZM221.405 14.6768V3.70952H225.935C228.495 3.70952 230.089 4.99979 230.089 7.01584C230.089 8.22547 229.543 9.07221 228.578 9.55606C229.166 9.91894 229.501 10.4834 229.711 11.3302L230.592 14.6768H228.243L227.614 11.814C227.32 10.5641 226.816 10.3222 225.6 10.3222H223.712V14.6768H221.405ZM225.81 5.403H223.712V8.83028H225.768C227.11 8.83028 227.907 8.18514 227.907 7.1368C227.907 6.08846 227.11 5.403 225.81 5.403Z" fill="white"/>
<rect x="215.587" y="34.2863" width="8.13865" height="8.13865" fill="white"/>
</svg>
